{"title":"Otnemem - Chronological Memento (720p)","uid":6099331,"size":9491390700,"categoryP":"video","categoryS":"hd___movies","magnet":"?xt=urn:btih:39e181ccb58d63c4412ee198cd063901a5fabac9&amp;dn=Otnemem+-+Chronological+Memento+%28720p%29&amp;tr=udp%3A%2F%2Ftracker.openbittorrent.com%3A80&amp;tr=udp%3A%2F%2Fopen.demonii.com%3A1337&amp;tr=udp%3A%2F%2Ftracker.coppersurfer.tk%3A6969&amp;tr=udp%3A%2F%2Fexodus.desync.com%3A6969","seeders":0,"leechers":1,"uploader":"ztrw","files":2,"time":1294901599,"description":"General\nComplete name                    : Otnemem - Chronological Memento (720p).mpeg\nFormat                           : MPEG-PS\nFile size                        : 8.84 GiB\nDuration                         : 1h 50mn\nOverall bit rate                 : 11.4 Mbps\n\nVideo\nID                               : 224 (0xE0)\nFormat                           : MPEG Video\nFormat version                   : Version 2\nFormat profile                   : High@High 1440\nFormat settings, BVOP            : No\nFormat settings, Matrix          : Default\nFormat settings, GOP             : M=1, N=3\nDuration                         : 1h 50mn\nBit rate mode                    : Constant\nBit rate                         : 11.0 Mbps\nWidth                            : 1 280 pixels\nHeight                           : 720 pixels\nDisplay aspect ratio             : 16:9\nFrame rate                       : 23.976 fps\nStandard                         : NTSC\nColor space                      : YUV\nChroma subsampling               : 4:2:0\nBit depth                        : 8 bits\nScan type                        : Progressive\nBits/(Pixel*Frame)               : 0.500\nStream size                      : 8.37 GiB (95%)\n\nAudio\nID                               : 192 (0xC0)\nFormat                           : MPEG Audio\nFormat version                   : Version 1\nFormat profile                   : Layer 2\nDuration                         : 1h 50mn\nBit rate mode                    : Constant\nBit rate                         : 384 Kbps\nChannel(s)                       : 2 channels\nSampling rate                    : 48.0 KHz\nStream size                      : 304 MiB (3%)\n\n\n\n - just to let everyone know, the real resolution is 1280*544, there are black bars at the top and bottom\n\n - this is not intended for sale, just a neat edit of the movie\n\n - all rights to this movie belong to whomever has rights for Memento(2000)\n","torrent":{"xt":"urn:btih:39e181ccb58d63c4412ee198cd063901a5fabac9","amp;dn":"Otnemem+-+Chronological+Memento+%28720p%29","amp;tr":["udp%3A%2F%2Ftracker.openbittorrent.com%3A80","udp%3A%2F%2Fopen.demonii.com%3A1337","udp%3A%2F%2Ftracker.coppersurfer.tk%3A6969","udp%3A%2F%2Fexodus.desync.com%3A6969"],"infoHash":"39e181ccb58d63c4412ee198cd063901a5fabac9","infoHashBuffer":{"type":"Buffer","data":[57,225,129,204,181,141,99,196,65,46,225,152,205,6,57,1,165,250,186,201]},"announce":[],"urlList":[]}}